<svg width="15" height="15" viewBox="0 0 15 15" fill="none" xmlns="http://www.w3.org/2000/svg">
<path d="M14.5677 12.0268C14.5677 11.9565 14.5677 11.8862 14.5375 11.8158C14.4672 11.6049 13.975 11.3839 13.7741 11.2835C13.2016 10.9621 12.619 10.6507 12.0565 10.3192C11.7953 10.1585 11.4739 9.85714 11.1625 9.85714C10.5498 9.85714 9.65583 11.6752 9.11342 11.6752C8.84222 11.6752 8.49065 11.4241 8.24958 11.2835C6.42146 10.269 5.15583 9.00335 4.14132 7.17522C4.0007 6.93415 3.74958 6.58259 3.74958 6.31138C3.74958 5.76897 5.56766 4.875 5.56766 4.26228C5.56766 3.95089 5.26632 3.62946 5.10561 3.3683C4.77414 2.8058 4.46275 2.22321 4.14132 1.65067C4.04088 1.44978 3.81989 0.957589 3.60896 0.887276C3.53864 0.857142 3.46833 0.857142 3.39802 0.857142C3.03641 0.857142 2.33329 1.01786 2.00181 1.16853C1.50963 1.37946 1.1882 1.94196 0.937081 2.39397C0.615653 2.98661 0.424805 3.58929 0.424805 4.26228C0.424805 5.19643 0.806501 6.04018 1.11789 6.89397C1.33887 7.5067 1.61007 8.09933 1.95159 8.65179C3.00628 10.3594 5.06543 12.4185 6.77302 13.4732C7.32547 13.8147 7.91811 14.0859 8.53083 14.3069C9.38463 14.6183 10.2284 15 11.1625 15C11.8355 15 12.4382 14.8092 13.0308 14.4877C13.4828 14.2366 14.0453 13.9152 14.2563 13.423C14.4069 13.0915 14.5677 12.3884 14.5677 12.0268Z" fill="#FFAA04"/>
</svg>
